<mxfile host="app.diagrams.net" modified="2024-05-01T17:30:41.954Z" agent="Mozilla/5.0 (Windows NT 10.0; Win64; x64) AppleWebKit/537.36 (KHTML, like Gecko) Chrome/124.0.0.0 Safari/537.36" version="24.3.1" etag="Nr1Ua5CagMnnf1JpyAcy" type="github">
  <diagram name="PÃ¡gina-1" id="mQf796LOXsBwUFUDD-1h">
    <mxGraphModel>
      <root>
        <mxCell id="0" />
        <mxCell id="1" parent="0" />
      </root>
    </mxGraphModel>
  </diagram>
</mxfile>
